<svg version="1" xmlns="http://www.w3.org/2000/svg" width="600" height="600" viewBox="0 0 450.000000 450.000000"><path d="M87.5 1.1C65.6 3.9 45.9 13.7 29.8 29.6 13.5 45.8 3.9 65.6 1 89-.4 100.6-.4 349.4 1 361c5.8 46.9 41.1 82.2 88 88 11.6 1.4 260.4 1.4 272 0 23.4-2.9 42.6-12.2 59.2-28.6 16.3-16.2 25.9-36 28.8-59.4 1.4-11.6 1.4-260.4 0-272-5.8-46.9-41.1-82.2-88-88C350.5-.3 97.7-.2 87.5 1.1zm85.3 152.6c8.5 25.8 22.8 69.5 31.9 97.3 9.1 27.8 17.3 54.3 18.3 59l1.7 8.4 1.8-7.9c.9-4.4 16.5-51.9 34.5-105.5l32.7-97.5 22.3-.3c20.9-.2 22.2-.1 21.5 1.5-.3 1-20.7 57.5-45.3 125.6L247.6 358l-23.5-.2-23.5-.3-44.3-125C132 163.7 112 107.4 112 107.2c0-.1 10.2-.2 22.8-.2h22.7l15.3 46.7z"/></svg>